<svg width="20" height="20" viewBox="0 0 20 20" fill="none" xmlns="http://www.w3.org/2000/svg">
<g clip-path="url(#clip0_3126_910)">
<path fill-rule="evenodd" clip-rule="evenodd" d="M9.43998 0.672311C8.7639 0.731551 8.34938 0.792231 7.88278 0.900191C5.60786 1.42659 3.59126 2.81123 2.2759 4.75001C1.21062 6.32017 0.660522 8.10801 0.660522 10C0.660522 11.969 1.25678 13.8258 2.40742 15.44C3.7175 17.2779 5.70576 18.6027 7.90998 19.1066C9.41086 19.4496 11.0523 19.4106 12.52 18.9971C14.7279 18.375 16.609 16.982 17.8636 15.04C18.2023 14.5158 18.4457 14.0384 18.6995 13.4C19.3759 11.6995 19.522 9.72791 19.1065 7.91001C18.637 5.85579 17.4589 3.99209 15.8 2.67903C14.4018 1.57237 12.7721 0.906191 10.98 0.708811C10.706 0.678631 9.65264 0.653671 9.43998 0.672311ZM9.84388 5.30135C9.55192 5.35883 9.31072 5.61595 9.26092 5.92277C9.23486 6.08345 9.23304 10.2565 9.25898 10.4358C9.29482 10.6837 9.44756 10.892 9.67586 11.0044C9.79826 11.0647 9.82472 11.07 9.99998 11.07C10.1752 11.07 10.2017 11.0647 10.3241 11.0044C10.5524 10.892 10.7051 10.6837 10.741 10.4358C10.7669 10.2565 10.7651 6.08345 10.739 5.92277C10.6878 5.60733 10.4486 5.35853 10.1401 5.30003C10.0196 5.27719 9.96536 5.27743 9.84388 5.30135ZM9.85954 12.5597C9.60484 12.5921 9.38812 12.7085 9.19692 12.9156C8.9555 13.1772 8.8655 13.5364 8.95078 13.8982C9.01322 14.1631 9.213 14.4278 9.4614 14.5747C9.59266 14.6523 9.8437 14.72 9.99998 14.72C10.1563 14.72 10.4073 14.6523 10.5386 14.5747C10.787 14.4278 10.9867 14.1631 11.0492 13.8982C11.1345 13.5364 11.0445 13.1772 10.803 12.9156C10.5499 12.6414 10.214 12.5147 9.85954 12.5597Z" fill="white"/>
</g>
<defs>
<clipPath id="clip0_3126_910">
<rect width="20" height="20" fill="white"/>
</clipPath>
</defs>
</svg>
